<?xml version="1.0" encoding="UTF-8" standalone="no"?>
<svg width="116px" height="25px" viewBox="0 0 116 25" version="1.1" xmlns="http://www.w3.org/2000/svg" xmlns:xlink="http://www.w3.org/1999/xlink">
    <defs></defs>
    <g id="Page-5" stroke="none" stroke-width="1" fill="none" fill-rule="evenodd">
        <g id="Artboard-49" transform="translate(-43.000000, -111.000000)">
            <g id="logo" transform="translate(43.000000, 111.000000)">
                <g id="atomic" transform="translate(34.000000, 0.300003)" fill="#000000">
                    <path d="M3.92061039,12.7477548 L7.29609052,12.2462586 C8.07644345,12.134815 8.32771989,11.7454589 8.32771989,11.2725202 C8.32771989,10.2980852 7.57458857,9.4908156 6.01248673,9.4908156 C4.39454567,9.4908156 3.50181633,10.5209724 3.39083591,11.717598 L0.0991145943,11.0217721 C0.322471426,8.87857233 2.30266934,6.51248539 5.98526511,6.51248539 C10.3365354,6.51248539 11.9537785,8.96215503 11.9537785,11.717598 L11.9537785,18.4536672 C11.9537785,19.177354 12.0375373,20.151789 12.1212961,20.6247278 L8.71859435,20.6247278 C8.63483553,20.2625361 8.57899633,19.5109883 8.57899633,18.9823277 C7.88170421,20.0682063 6.57018082,21.0140839 4.53414369,21.0140839 C1.60537723,21.0140839 -0.179383456,19.0380495 -0.179383456,16.8948498 C-0.179383456,14.4451802 1.63329684,13.0813891 3.92061039,12.7477548 L3.92061039,12.7477548 Z M8.32771989,15.0859809 L8.32771989,14.4730411 L5.23213379,14.9466764 C4.28356525,15.0859809 3.53043393,15.6146414 3.53043393,16.6719626 C3.53043393,17.4792322 4.11604762,18.2586409 5.31589261,18.2586409 C6.87729646,18.2586409 8.32771989,17.5070931 8.32771989,15.0859809 L8.32771989,15.0859809 Z" id="Fill-1"></path>
                    <path d="M19.0676936,6.93039889 L21.8289424,6.93039889 L21.8289424,10.2145025 L19.0676936,10.2145025 L19.0676936,15.9482757 C19.0676936,17.1455979 19.6253877,17.534954 20.6856346,17.534954 C21.1316503,17.534954 21.6335052,17.4792322 21.8289424,17.4235104 L21.8289424,20.4854233 C21.4939072,20.6247278 20.8245346,20.8190576 19.7370661,20.8190576 C17.0588781,20.8190576 15.3857958,19.2330758 15.3857958,16.5890764 L15.3857958,10.2145025 L12.903045,10.2145025 L12.903045,6.93039889 L13.6003371,6.93039889 C15.0507605,6.93039889 15.720133,5.98382481 15.720133,4.75933825 L15.720133,2.83832919 L19.0676936,2.83832919 L19.0676936,6.93039889" id="Fill-2"></path>
                    <path d="M37.086308,13.7772151 C37.086308,17.9807284 33.9900239,21.0419448 29.8900301,21.0419448 C25.7900362,21.0419448 22.6937521,17.9807284 22.6937521,13.7772151 C22.6937521,9.54653741 25.7900362,6.51248539 29.8900301,6.51248539 C33.9900239,6.51248539 37.086308,9.54653741 37.086308,13.7772151 L37.086308,13.7772151 Z M33.3764906,13.7772151 C33.3764906,11.1889375 31.7034084,9.88086821 29.8900301,9.88086821 C28.0773498,9.88086821 26.4035695,11.1889375 26.4035695,13.7772151 C26.4035695,16.3383283 28.0773498,17.6742585 29.8900301,17.6742585 C31.7034084,17.6742585 33.3764906,16.3661892 33.3764906,13.7772151 L33.3764906,13.7772151 Z" id="Fill-3"></path>
                    <path d="M38.9003843,20.6247278 L38.9003843,6.93039889 L42.443382,6.93039889 L42.443382,8.59996333 C43.1965133,7.26403317 44.9533544,6.54034629 46.4596171,6.54034629 C48.3281366,6.54034629 49.8350972,7.34761587 50.5316913,8.82285053 C51.6198579,7.15328609 53.0702813,6.54034629 54.8836596,6.54034629 C57.4215516,6.54034629 59.8484632,8.07130275 59.8484632,11.7454589 L59.8484632,20.6247278 L56.2503242,20.6247278 L56.2503242,12.4970067 C56.2503242,11.0217721 55.5251125,9.90872911 53.8234126,9.90872911 C52.2333912,9.90872911 51.2848226,11.1332157 51.2848226,12.6084503 L51.2848226,20.6247278 L47.6036228,20.6247278 L47.6036228,12.4970067 C47.6036228,11.0217721 46.8504915,9.90872911 45.1760133,9.90872911 C43.5587702,9.90872911 42.6102017,11.1053548 42.6102017,12.6084503 L42.6102017,20.6247278 L38.9003843,20.6247278" id="Fill-4"></path>
                    <path d="M64.0500031,0.138607978 C65.3126671,0.138607978 66.3000031,1.16806823 66.3000031,2.44897312 C66.3000031,3.67345967 65.3126671,4.70291993 64.0500031,4.70291993 C62.8148032,4.70291993 61.8000031,3.67345967 61.8000031,2.44897312 C61.8000031,1.16806823 62.8148032,0.138607978 64.0500031,0.138607978 L64.0500031,0.138607978 Z M62.2387428,6.93039889 L65.8880409,6.93039889 L65.8880409,20.6247278 L62.2387428,20.6247278 L62.2387428,6.93039889 Z" id="Fill-5"></path>
                    <path d="M71.3098235,13.7772151 C71.3098235,16.2547456 72.9277645,17.6463976 74.8242036,17.6463976 C76.7206427,17.6463976 77.6692113,16.3940501 77.9763269,15.3360324 L81.2394307,16.421911 C80.6258974,18.7037187 78.4781818,21.0419448 74.8242036,21.0419448 C70.779351,21.0419448 67.6000061,17.9807284 67.6000061,13.7772151 C67.6000061,9.54653741 70.7235118,6.51248539 74.7125252,6.51248539 C78.4502622,6.51248539 80.5700582,8.82285053 81.1556718,11.1332157 L77.8367289,12.2462586 C77.5016937,11.1053548 76.6368839,9.93659001 74.796284,9.93659001 C72.8991469,9.93659001 71.3098235,11.3003811 71.3098235,13.7772151" id="Fill-6"></path>
                </g>
                <g id="Logomark">
                    <path d="M9.16497574,2.4953865 L0.656158998,17.4495291 C-0.698534193,19.8304046 8.27893921,24.0468648 9.18871086,22.4480271 L17.6975276,7.49388445" id="Left-2" fill="#4985FF"></path>
                    <path d="M9.25392436,7.49388449 L17.7627411,22.4480271 C18.6727367,24.0470921 27.6499862,19.8304046 26.295069,17.4495292 L17.7862523,2.49538654 C16.8764807,0.896321607 7.89923117,5.11300904 9.25392436,7.49388449 Z" id="Right-2" fill="#8EFAFF"></path>
                    <path d="M4.92615706,15 C2.21677068,15 2.21677068,24.9969959 4.92615706,24.9969959 L21.9437905,24.9969959 C24.6531769,24.9969959 24.6531769,15 21.9437905,15 L4.92615706,15 Z" id="Bottom-2" fill="#FC436F"></path>
                    <path d="M13.58348,15 L17.8217664,22.4770713 C17.8358731,22.5013822 17.8392318,22.5070623 17.8423667,22.5127424 C18.7644537,24.093631 20.412925,24.9724578 22.102149,24.9724578 C22.936237,24.9724578 23.7806251,24.7579768 24.5511208,24.3065216 C26.1268193,23.3833899 27.0081536,21.6945792 27.0081536,19.9637357 C27.0081536,19.939652 27.0081536,19.9157955 27.0077058,19.8917119 C27.007258,19.8694458 27.0068101,19.8469526 27.0063623,19.8246865 C27.0059145,19.8124175 27.0054666,19.8001485 27.0050188,19.7878794 C27.0043471,19.7687942 27.0036753,19.7506179 27.0027796,19.7326687 C26.9983013,19.6433774 26.9906882,19.5543132 26.9817315,19.4650219 C26.7309453,17.093689 24.828777,15.2047112 22.47385,15.0154499 C22.4373516,15.0127234 22.0869227,15 22.0842357,15 L13.58348,15 Z" id="Bottom-right-2" fill="#FA2B61"></path>
                    <path d="M4.92398046,15 C4.8845712,15.0002272 4.57086456,15.0127234 4.54936861,15.0143139 C2.17943923,15.2047112 0.277270855,17.093689 0.0264846771,19.4650219 C0.0110344573,19.6070247 0.00252564053,19.7492547 0.000510394462,19.8917119 C-0.0243443071,21.6475479 0.859453053,23.3706664 2.45709535,24.3065216 C3.24774356,24.7629753 4.08183152,24.9722306 4.90561933,24.9724578 C6.61230883,24.9720034 8.27667817,24.0756818 9.18644981,22.4770713 L13.4327972,15.0138595 L4.92398046,15 Z" id="Bottom-left-3" fill="#4275F4"></path>
                    <path d="M11.0571218,0.665027432 C8.71070359,2.03961437 7.89923117,5.11210017 9.25392436,7.49297563 L13.5063175,14.9664117 L17.7667716,7.48593229 C19.032794,5.2611463 18.4067242,2.43267807 16.4046892,0.94971461 C16.2911636,0.865421758 16.1740554,0.786581814 16.0533646,0.713649184 C15.2833167,0.247425648 14.3986237,0 13.5029587,0 C12.6697664,0 11.8269458,0.214026594 11.0571218,0.665027432 Z" id="Top-2" fill="#83E7FF"></path>
                </g>
            </g>
        </g>
    </g>
</svg>
